# xmcd
#
# Track frame offsets: 
#        187
#        19020
#        30675
#        45567
#        61430
#        73660
#        90135
#        102617
#        118585
#        136380
#
# Disc length: 2008 seconds
#
# Revision: 4
# Processed by: cddbd v1.5.1PL0 Copyright (c) Steve Scherf et al.
# Submitted via: ExactAudioCopy v0.95b1
#
DISCID=8207d60a
DTITLE=Jimmy Buffett - Havana Daydreamin'
DYEAR=1976
DGENRE=
TTITLE0=Woman Goin' Crazy On Caroline Street
TTITLE1=My Head Hurts, My Feet Stink and I Don't Love Jesus
TTITLE2=The Captain and the Kid
TTITLE3=Big Rig
TTITLE4=Defying Gravity
TTITLE5=Havana Daydreamin'
TTITLE6=Cliches
TTITLE7=Something So Feminine About a Mandolin
TTITLE8=Kick It In Second Wind
TTITLE9=This Hotel Room
EXTD=
EXTT0=
EXTT1=
EXTT2=
EXTT3=
EXTT4=
EXTT5=
EXTT6=
EXTT7=
EXTT8=
EXTT9=
PLAYORDER=
